<?xml version="1.0" encoding="UTF-8"?>
<svg version="1.1" xmlns="http://www.w3.org/2000/svg" width="80" height="80">
<path d="M0 0 C6.00167167 5.02465535 9.74956812 10.99756578 11.125 18.75 C11.92600487 30.59342909 10.89076621 39.38936412 3.21484375 48.671875 C-3.67887481 55.52693719 -12.02206298 58.73002059 -21.625 59.125 C-32.04854672 58.87805812 -39.31756316 55.32870281 -46.77734375 48.1171875 C-49.6367222 44.89040288 -51.43735705 41.79546039 -52.875 37.75 C-53.2875 36.63625 -53.7 35.5225 -54.125 34.375 C-55.37382117 28.339031 -55.36946803 22.7278721 -53.875 16.75 C-56.845 17.41 -59.815 18.07 -62.875 18.75 C-62.07468765 12.49891167 -58.53558565 9.67745982 -53.875 5.75 C-37.19103995 -6.45470683 -18.21393906 -13.17796584 0 0 Z M-49.875 14.75 C-49.875 15.08 -49.875 15.41 -49.875 15.75 C-47.565 15.75 -45.255 15.75 -42.875 15.75 C-42.875 15.42 -42.875 15.09 -42.875 14.75 C-45.185 14.75 -47.495 14.75 -49.875 14.75 Z " fill="#146113" transform="translate(62.875,14.25)"/>
<path d="M0 0 C4.15259744 0 6.076658 2.17983347 8.9375 5 C13 9.27274624 13 9.27274624 13 11.625 C14.32 12.285 15.64 12.945 17 13.625 C17 15.935 17 18.245 17 20.625 C14.5 19.25 14.5 19.25 12 17.625 C12 16.965 12 16.305 12 15.625 C11.34 15.625 10.68 15.625 10 15.625 C9.95875 16.285 9.9175 16.945 9.875 17.625 C7.56161885 25.5565925 0.46501595 31.83526645 -6 36.625 C-8.77734375 37.8515625 -8.77734375 37.8515625 -11 38.625 C-5.39300428 38.625 -1.08653488 34.17652892 3 30.625 C6.11427345 26.89221232 8.823929 22.977142 11 18.625 C12.9375 19.3125 12.9375 19.3125 15 20.625 C16.3093754 24.60086386 15.91242243 26.80015515 14.0625 30.5 C10.49840483 37.10637531 5.71458905 41.73281498 -1.25 44.625 C-4.8145869 45.57555651 -5.7188257 45.67032987 -9 44.625 C-9 45.285 -9 45.945 -9 46.625 C-11.31 46.625 -13.62 46.625 -16 46.625 C-16.2475 46.00625 -16.495 45.3875 -16.75 44.75 C-18.25554205 42.19057852 -19.37822556 41.90971706 -22 40.625 C-25.64986607 37.9650562 -28.54982428 35.42308559 -29.671875 30.94140625 C-29.90882593 28.48478268 -30.03474402 26.09182535 -30 23.625 C-29.34 23.625 -28.68 23.625 -28 23.625 C-27.938125 22.965 -27.87625 22.305 -27.8125 21.625 C-25.46422348 12.95444056 -19.37179663 7.24807798 -11.875 2.75 C-8.97983249 1.61710837 -7.0663938 1.4497775 -4 1.625 C-3 0.625 -3 0.625 0 0 Z " fill="#8D532B" transform="translate(47,15.375)"/>
<path d="M0 0 C8.46757402 5.24652011 14.09606044 12.27375626 17.5390625 21.64453125 C18.24322113 25.95914083 18.30270429 30.15470301 18.2265625 34.51953125 C18.21367188 35.67050293 18.20078125 36.82147461 18.1875 38.00732422 C17.9255103 46.53775738 17.01314766 52.83129221 11.5390625 59.64453125 C10.95898438 60.3921875 10.37890625 61.13984375 9.78125 61.91015625 C4.28665764 68.11743632 -4.93933658 74.04021624 -13.37109375 74.8215332 C-26.94464793 75.20798535 -37.61989657 74.65732453 -48.4609375 65.55859375 C-55.58326516 58.74230361 -61.2551063 49.46166061 -61.55859375 39.41015625 C-61.54699219 38.25 -61.53539062 37.08984375 -61.5234375 35.89453125 C-61.51441406 34.7240625 -61.50539062 33.55359375 -61.49609375 32.34765625 C-61.48449219 31.455625 -61.47289062 30.56359375 -61.4609375 29.64453125 C-59.8109375 28.98453125 -58.1609375 28.32453125 -56.4609375 27.64453125 C-56.5021875 28.92328125 -56.5434375 30.20203125 -56.5859375 31.51953125 C-56.53390126 42.585904 -53.30732407 52.58018949 -45.4609375 60.64453125 C-37.75219044 66.96344131 -28.74920187 70.35539283 -18.70703125 69.92578125 C-8.28026285 68.62016851 0.66834795 63.81104943 7.2578125 55.57421875 C12.85464805 47.14483838 14.39593324 38.62526513 13.5390625 28.64453125 C11.18903962 18.50586112 6.03926289 10.85316435 -2.4453125 4.89453125 C-10.60183934 -0.16377997 -19.44193441 -1.59344826 -28.875 0.0703125 C-35.35133101 1.78959907 -40.98874869 4.92393314 -46.7734375 8.21875 C-49.4609375 9.64453125 -49.4609375 9.64453125 -51.4609375 9.64453125 C-48.58071466 3.0143153 -42.25812484 -0.20198492 -35.9609375 -3.23046875 C-23.79266559 -7.98394033 -11.25376877 -6.19850439 0 0 Z " fill="#59452C" transform="translate(62.4609375,5.35546875)"/>
<path d="M0 0 C0 2.31 0 4.62 0 7 C0.99 6.67 1.98 6.34 3 6 C8.89124451 5.55712672 14.49320328 5.68714538 20 8 C24.36796333 12.36796333 25.14497039 16.1208075 25.25 22.125 C25.12386406 31.61042292 22.29341423 39.81146121 16 47 C7.98096544 54.15929401 -1.6507106 56.44997679 -12.19921875 56.10546875 C-12.79347656 56.07066406 -13.38773438 56.03585938 -14 56 C-14.33 55.34 -14.66 54.68 -15 54 C-14.01 53.505 -14.01 53.505 -13 53 C-14.65 52.67 -16.3 52.34 -18 52 C-17.01 51.505 -17.01 51.505 -16 51 C-18.97 47.535 -18.97 47.535 -22 44 C-22.66 45.32 -23.32 46.64 -24 48 C-25.09506492 44.71480525 -25.09960608 42.26336585 -25.0625 38.8125 C-25.05347656 37.72582031 -25.04445313 36.63914063 -25.03515625 35.51953125 C-25.02355469 34.68808594 -25.01195312 33.85664062 -25 33 C-24.34 33 -23.68 33 -23 33 C-23 34.155 -23 35.31 -23 36.5 C-22.30217739 42.37420828 -18.2214218 45.27199114 -14 49 C-13.33097656 49.721875 -12.66195313 50.44375 -11.97265625 51.1875 C-9.20042946 53.73465491 -6.66696058 53.71792611 -3 54 C-3 53.34 -3 52.68 -3 52 C-1.2984375 51.938125 -1.2984375 51.938125 0.4375 51.875 C6.96363651 51.06357983 11.88678786 47.16882299 16.375 42.5625 C18.90304293 38.57597076 21.0893356 35.01005109 20.875 30.1875 C20.10354173 27.65986811 20.10354173 27.65986811 17 26 C16.731875 26.73476563 16.46375 27.46953125 16.1875 28.2265625 C12.54482512 36.73412554 5.83973842 42.39483897 -2 47 C-2.99 47.33 -3.98 47.66 -5 48 C-5 47.34 -5 46.68 -5 46 C-3.54132595 44.92093989 -2.03027714 43.91236029 -0.5 42.9375 C7.0946214 37.75592143 13.00451912 31.79922508 16 23 C16.66 23 17.32 23 18 23 C18 23.66 18 24.32 18 25 C19.32 25.66 20.64 26.32 22 27 C22.41890218 24.21061788 22.41890218 24.21061788 22 21 C19.91886589 18.41636938 19.91886589 18.41636938 17 16 C16.45730469 15.39542969 15.91460937 14.79085938 15.35546875 14.16796875 C11.45814006 9.82802295 11.45814006 9.82802295 6.0625 8.0625 C4.5465625 8.0315625 4.5465625 8.0315625 3 8 C2.67 8.66 2.34 9.32 2 10 C0.989375 10.103125 -0.02125 10.20625 -1.0625 10.3125 C-7.28055505 11.39819215 -11.33077624 14.33077624 -15.75 18.75 C-18.44102124 22.63703067 -20.25806526 26.62083444 -22 31 C-22.66 31 -23.32 31 -24 31 C-23.01 27.7 -22.02 24.4 -21 21 C-27.15062051 20.54439848 -31.27193249 21.6165891 -36.8984375 24.125 C-39 25 -39 25 -41 25 C-40.19968765 18.74891167 -36.66058565 15.92745982 -32 12 C-22.25569307 4.87181167 -12.37429106 -1.2079026 0 0 Z " fill="#110C05" transform="translate(41,8)"/>
<path d="M0 0 C11.3184177 -0.78812967 20.28758985 1.73495895 29.05859375 9.078125 C35.93417964 15.88454001 38.07866265 23.46558015 38.25 33 C38.18524103 38.06199312 37.79944079 42.27646792 36 47 C33.375 47.75 33.375 47.75 30 48 C26.625 46.0625 26.625 46.0625 24 44 C24.27714844 43.25234375 24.55429687 42.5046875 24.83984375 41.734375 C25.20207031 40.74953125 25.56429687 39.7646875 25.9375 38.75 C26.29714844 37.77546875 26.65679687 36.8009375 27.02734375 35.796875 C29.45638197 28.81217073 30.51598397 20.9864967 27.6875 13.9375 C25.8152974 10.67848066 24.38200851 9.37951529 20.73828125 8.37890625 C17.5236608 7.93408716 14.43194972 7.90472778 11.1875 7.9375 C9.44533203 7.95103516 9.44533203 7.95103516 7.66796875 7.96484375 C6.78753906 7.97644531 5.90710937 7.98804688 5 8 C5 5.69 5 3.38 5 1 C3.35 1 1.7 1 0 1 C0 0.67 0 0.34 0 0 Z " fill="#905914" transform="translate(36,7)"/>
<path d="M0 0 C0 2.31 0 4.62 0 7 C-0.95261719 7.43570312 -1.90523437 7.87140625 -2.88671875 8.3203125 C-4.15401194 8.92110335 -5.42091878 9.52270963 -6.6875 10.125 C-7.62625977 10.55039062 -7.62625977 10.55039062 -8.58398438 10.984375 C-12.02474457 12.64170452 -14.32845943 14.14618602 -16.6640625 17.203125 C-19 20 -19 20 -21.32421875 20.6640625 C-22.10410156 20.65117187 -22.88398438 20.63828125 -23.6875 20.625 C-28.67265373 20.81184984 -32.43477361 22.14425852 -36.96875 24.16015625 C-39 25 -39 25 -41 25 C-40.19968765 18.74891167 -36.66058565 15.92745982 -32 12 C-22.25569307 4.87181167 -12.37429106 -1.2079026 0 0 Z " fill="#41290B" transform="translate(41,8)"/>
<path d="M0 0 C2.58104981 0.46090175 3.93443451 0.94672804 6 2.625 C7.91131777 4.2701354 7.91131777 4.2701354 10.25 3.6875 C10.8275 3.460625 11.405 3.23375 12 3 C9.44463392 10.89840424 4.46336946 14.81285716 -2.53125 18.7421875 C-9.62263659 22.35520409 -16.21436827 22.23011719 -24 22 C-24 21.67 -24 21.34 -24 21 C-22.02 21 -20.04 21 -18 21 C-18 17.7 -18 14.4 -18 11 C-16.659375 10.608125 -15.31875 10.21625 -13.9375 9.8125 C-8.09273528 7.86731805 -3.48843939 5.23265908 0 0 Z " fill="#239C3D" transform="translate(59,51)"/>
<path d="M0 0 C1.9375 0.6875 1.9375 0.6875 4 2 C5.3093754 5.97586386 4.91242243 8.17515515 3.0625 11.875 C-0.50629733 18.49009119 -5.31633433 23.09277355 -12.25 26.0625 C-16 27 -16 27 -18.375 26.375 C-20 25 -20 25 -22 22 C-21.33613281 21.55269531 -20.67226563 21.10539062 -19.98828125 20.64453125 C-11.60414041 14.90414869 -5.08397684 8.89695948 0 0 Z " fill="#88502A" transform="translate(58,34)"/>
<path d="M0 0 C1.23556641 0.01740234 1.23556641 0.01740234 2.49609375 0.03515625 C3.32238281 0.04417969 4.14867188 0.05320312 5 0.0625 C5.63808594 0.07410156 6.27617188 0.08570312 6.93359375 0.09765625 C8.06942831 3.81493299 7.60029401 5.56817334 5.93359375 9.09765625 C4.28359375 9.09765625 2.63359375 9.09765625 0.93359375 9.09765625 C0.60359375 10.74765625 0.27359375 12.39765625 -0.06640625 14.09765625 C-1.38640625 14.42765625 -2.70640625 14.75765625 -4.06640625 15.09765625 C-4.39640625 16.74765625 -4.72640625 18.39765625 -5.06640625 20.09765625 C-7.37640625 20.42765625 -9.68640625 20.75765625 -12.06640625 21.09765625 C-13.10646327 17.71747094 -13.14645107 14.61962835 -13.06640625 11.09765625 C-12.07640625 10.76765625 -11.08640625 10.43765625 -10.06640625 10.09765625 C-9.40640625 10.42765625 -8.74640625 10.75765625 -8.06640625 11.09765625 C-8.06640625 9.11765625 -8.06640625 7.13765625 -8.06640625 5.09765625 C-5.06640625 4.09765625 -5.06640625 4.09765625 -2.06640625 5.09765625 C-2.34484375 4.13859375 -2.34484375 4.13859375 -2.62890625 3.16015625 C-2.77328125 2.47953125 -2.91765625 1.79890625 -3.06640625 1.09765625 C-2.06640625 0.09765625 -2.06640625 0.09765625 0 0 Z " fill="#1A1613" transform="translate(36.06640625,20.90234375)"/>
<path d="M0 0 C2.84194866 1.28998155 4.87811943 2.63637587 7.05859375 4.86328125 C7.60966797 5.42080078 8.16074219 5.97832031 8.72851562 6.55273438 C9.29248047 7.13345703 9.85644531 7.71417969 10.4375 8.3125 C10.99759766 8.88162109 11.55769531 9.45074219 12.13476562 10.03710938 C13.23613825 11.15647409 14.33563968 12.27768353 15.43310547 13.40087891 C17.60522543 15.6176732 19.80133737 17.80955667 22 20 C21.67 20.99 21.34 21.98 21 23 C18.69 23 16.38 23 14 23 C13.7525 22.38125 13.505 21.7625 13.25 21.125 C11.74445795 18.56557852 10.62177444 18.28471706 8 17 C4.35013393 14.3400562 1.45017572 11.79808559 0.328125 7.31640625 C0.09117407 4.85978268 -0.03474402 2.46682535 0 0 Z " fill="#29231E" transform="translate(17,39)"/>
<path d="M0 0 C0.66 0 1.32 0 2 0 C2 1.155 2 2.31 2 3.5 C2.69782261 9.37420828 6.7785782 12.27199114 11 16 C12.00353516 17.0828125 12.00353516 17.0828125 13.02734375 18.1875 C15.79957054 20.73465491 18.33303942 20.71792611 22 21 C22 20.34 22 19.68 22 19 C23.98 19.33 25.96 19.66 28 20 C23.79248553 22.80500965 20.75014586 23.12829139 15.75 23.0625 C14.85796875 23.05347656 13.9659375 23.04445313 13.046875 23.03515625 C12.37140625 23.02355469 11.6959375 23.01195313 11 23 C10.67 22.34 10.34 21.68 10 21 C10.66 20.67 11.32 20.34 12 20 C10.35 19.67 8.7 19.34 7 19 C7.66 18.67 8.32 18.34 9 18 C7.02 15.69 5.04 13.38 3 11 C2.34 12.32 1.68 13.64 1 15 C-0.09506492 11.71480525 -0.09960608 9.26336585 -0.0625 5.8125 C-0.05347656 4.72582031 -0.04445313 3.63914063 -0.03515625 2.51953125 C-0.02355469 1.68808594 -0.01195312 0.85664062 0 0 Z " fill="#011100" transform="translate(16,41)"/>
<path d="M0 0 C2.85436464 -0.54658046 4.24073374 -0.73846547 7 0 C10.5171577 2.56790921 13.59202266 5.35909195 16 9 C15.75 11.80078125 15.75 11.80078125 15 14 C10.94772191 12.38873705 8.23778153 9.49978002 5.25 6.4375 C4.74339844 5.93025391 4.23679687 5.42300781 3.71484375 4.90039062 C0 1.14048812 0 1.14048812 0 0 Z " fill="#E2E3E4" transform="translate(44,16)"/>
<path d="M0 0 C4.91935902 4.11619836 9.52647956 8.40410362 14 13 C13.67 13.66 13.34 14.32 13 15 C9.87946796 15.3115067 8.40465758 15.27189035 5.76171875 13.49609375 C0.25158569 8.02746829 0.25158569 8.02746829 -0.51171875 4.91015625 C-0.5 3 -0.5 3 0 0 Z " fill="#E8E8E8" transform="translate(18,42)"/>
<path d="M0 0 C0.598125 0.185625 1.19625 0.37125 1.8125 0.5625 C4.16408762 1.22093687 4.16408762 1.22093687 7 0 C6.67 2.31 6.34 4.62 6 7 C5.38125 6.814375 4.7625 6.62875 4.125 6.4375 C1.95839822 5.76313824 1.95839822 5.76313824 0 7 C0 8.32 0 9.64 0 11 C-1.32 11 -2.64 11 -4 11 C-5.01111093 14.04913228 -5.01111093 14.04913228 -4 17 C-5.98 17.33 -7.96 17.66 -10 18 C-10 15.69 -10 13.38 -10 11 C-8.68 10.67 -7.36 10.34 -6 10 C-6 8.35 -6 6.7 -6 5 C-4.68 5.33 -3.36 5.66 -2 6 C-0.42726432 3.1575146 -0.42726432 3.1575146 0 0 Z " fill="#D2D2D2" transform="translate(35,22)"/>
<path d="M0 0 C-0.639375 0.12375 -1.27875 0.2475 -1.9375 0.375 C-2.618125 0.58125 -3.29875 0.7875 -4 1 C-4.33 1.66 -4.66 2.32 -5 3 C-6.010625 3.103125 -7.02125 3.20625 -8.0625 3.3125 C-14.28055505 4.39819215 -18.33077624 7.33077624 -22.75 11.75 C-25.44102124 15.63703067 -27.25806526 19.62083444 -29 24 C-29.66 24 -30.32 24 -31 24 C-29.08754045 15.11161659 -25.91863031 9.20155631 -18.19140625 4.171875 C-11.86470147 0.72241048 -7.17736738 -0.71773674 0 0 Z " fill="#0C0A03" transform="translate(48,15)"/>
<path d="M0 0 C0.99 0.66 1.98 1.32 3 2 C2.01 2.33 1.02 2.66 0 3 C0 4.32 0 5.64 0 7 C-1.65 7 -3.3 7 -5 7 C-5.33 8.98 -5.66 10.96 -6 13 C-7.32 13 -8.64 13 -10 13 C-10.33 13.99 -10.66 14.98 -11 16 C-11.99 16.33 -12.98 16.66 -14 17 C-12.428995 10.01775557 -7.87249074 4.95573837 -2.0625 1 C-1.381875 0.67 -0.70125 0.34 0 0 Z " fill="#844E28" transform="translate(34,19)"/>
<path d="M0 0 C5.03163018 4.29785078 10.02718443 8.63425542 15 13 C15 12.01 15 11.02 15 10 C18.875 10.875 18.875 10.875 20 12 C20.04092937 14.33297433 20.04241723 16.66705225 20 19 C17.5 17.625 17.5 17.625 15 16 C15 15.34 15 14.68 15 14 C14.45859375 13.94714844 13.9171875 13.89429688 13.359375 13.83984375 C9.90051045 12.60862541 7.74997178 10.14449186 5.25 7.5625 C4.74339844 7.05912109 4.23679687 6.55574219 3.71484375 6.03710938 C0 2.26719382 0 2.26719382 0 0 Z " fill="#151515" transform="translate(44,17)"/>
<path d="M0 0 C1.875 1.75 1.875 1.75 3 4 C2.6875 7.25 2.6875 7.25 2 10 C0 9 0 9 -1 6 C-1.598125 5.71125 -2.19625 5.4225 -2.8125 5.125 C-5.69100341 3.64462682 -7.10099999 1.57721429 -9 -1 C-5.37843678 -2.34131971 -3.36926714 -1.81422077 0 0 Z " fill="#221407" transform="translate(62,17)"/>
<path d="M0 0 C1.1725131 0.95117134 2.33787015 1.91117009 3.5 2.875 C4.47453125 3.67550781 4.47453125 3.67550781 5.46875 4.4921875 C5.9740625 4.98976563 6.479375 5.48734375 7 6 C7 6.66 7 7.32 7 8 C8.32 8.66 9.64 9.32 11 10 C9.375 11.1875 9.375 11.1875 7 12 C1.9 9.9 1.9 9.9 0 8 C-0.14115161 5.32941149 -0.04247107 2.67567762 0 0 Z " fill="#22170A" transform="translate(18,51)"/>
<path d="M0 0 C0.66 0.33 1.32 0.66 2 1 C-1.96 4.96 -5.92 8.92 -10 13 C-8.35 13 -6.7 13 -5 13 C-7.91765 14.9451 -9.62537285 15.45276317 -13 16 C-12.50008693 11.71716268 -11.29833005 9.818457 -8.1875 6.875 C-7.50042969 6.21242188 -6.81335938 5.54984375 -6.10546875 4.8671875 C-4.14009199 3.12423743 -2.12717481 1.53921413 0 0 Z " fill="#5F4C35" transform="translate(13,17)"/>
<path d="M0 0 C0.66 0.33 1.32 0.66 2 1 C2 2.32 2 3.64 2 5 C0.71086513 5.67154933 -0.58140204 6.33708859 -1.875 7 C-2.59429688 7.37125 -3.31359375 7.7425 -4.0546875 8.125 C-6 9 -6 9 -8 9 C-6.4169423 4.7257442 -3.49431596 2.73468206 0 0 Z M0 2 C-0.33 2.66 -0.66 3.32 -1 4 C-0.34 4 0.32 4 1 4 C0.67 3.34 0.34 2.68 0 2 Z " fill="#7C6E5A" transform="translate(19,6)"/>
<path d="M0 0 C5.75 0.875 5.75 0.875 8 2 C8 3.65 8 5.3 8 7 C4.2047869 5.50902342 2.38957269 3.24299151 0 0 Z " fill="#7A4826" transform="translate(53,16)"/>
<path d="M0 0 C1.1725131 0.95117134 2.33787015 1.91117009 3.5 2.875 C4.47453125 3.67550781 4.47453125 3.67550781 5.46875 4.4921875 C5.9740625 4.98976563 6.479375 5.48734375 7 6 C7 6.66 7 7.32 7 8 C5.35 8 3.7 8 2 8 C1.34 5.36 0.68 2.72 0 0 Z " fill="#7E4A27" transform="translate(18,51)"/>
<path d="M0 0 C4.09826341 2.0491317 6.6424033 3.94085634 10 7 C10.33 7.99 10.66 8.98 11 10 C8.69 9.67 6.38 9.34 4 9 C4.66 8.67 5.32 8.34 6 8 C4.02 5.36 2.04 2.72 0 0 Z " fill="#090603" transform="translate(19,51)"/>
<path d="M0 0 C0.66 0.99 1.32 1.98 2 3 C-1.375 3.1875 -1.375 3.1875 -5 3 C-5.66 2.01 -6.32 1.02 -7 0 C-4.27584084 -1.36207958 -2.87220643 -0.86166193 0 0 Z " fill="#DDDDDD" transform="translate(36,59)"/>
<path d="M0 0 C1.485 0.99 1.485 0.99 3 2 C3.1875 5.625 3.1875 5.625 3 9 C1.68 8.01 0.36 7.02 -1 6 C-0.67 4.02 -0.34 2.04 0 0 Z " fill="#CED3D5" transform="translate(61,27)"/>
<path d="M0 0 C0.33 0.99 0.66 1.98 1 3 C-3.43076923 5.09230769 -3.43076923 5.09230769 -6.3125 4.625 C-6.869375 4.41875 -7.42625 4.2125 -8 4 C-7.67 3.01 -7.34 2.02 -7 1 C-7 1.66 -7 2.32 -7 3 C-6.21625 2.649375 -5.4325 2.29875 -4.625 1.9375 C-3.75875 1.628125 -2.8925 1.31875 -2 1 C-1.34 1.33 -0.68 1.66 0 2 C0 1.34 0 0.68 0 0 Z " fill="#130D0A" transform="translate(31,37)"/>
<path d="M0 0 C1.875 0.1875 1.875 0.1875 4 1 C5.25 3.5625 5.25 3.5625 6 6 C4.02 6.33 2.04 6.66 0 7 C0 4.69 0 2.38 0 0 Z " fill="#DDDDDD" transform="translate(25,33)"/>
<path d="M0 0 C0.33 0.66 0.66 1.32 1 2 C0.67 2.66 0.34 3.32 0 4 C1.98 3.67 3.96 3.34 6 3 C3.08235 4.9451 1.37462715 5.45276317 -2 6 C-1.125 1.125 -1.125 1.125 0 0 Z " fill="#766753" transform="translate(2,27)"/>
</svg>
